<?xml version="1.0" encoding="UTF-8" standalone="no"?>
<svg width="42px" height="42px" viewBox="0 0 42 42" version="1.1" xmlns="http://www.w3.org/2000/svg" xmlns:xlink="http://www.w3.org/1999/xlink" xmlns:sketch="http://www.bohemiancoding.com/sketch/ns">
    <!-- Generator: Sketch 3.3 (11970) - http://www.bohemiancoding.com/sketch -->
    <title>twitter_c</title>
    <desc>Created with Sketch.</desc>
    <defs></defs>
    <g id="Page-1" stroke="none" stroke-width="1" fill="none" fill-rule="evenodd" sketch:type="MSPage">
        <g id="twitter_c" sketch:type="MSLayerGroup">
            <path d="M21.0012347,42 C32.5988946,42 42,32.5986183 42,20.9993826 C42,9.40261649 32.5988946,0 21.0012347,0 C9.40234008,0 0,9.40261649 0,20.9993826 C0,32.5986183 9.40234008,42 21.0012347,42" id="Fill-168" fill="#68C6E1" sketch:type="MSShapeGroup"></path>
            <path d="M29.037,15.639 C28.411,15.917 27.737,16.105 27.03,16.189 C27.752,15.757 28.306,15.072 28.567,14.256 C27.891,14.656 27.144,14.947 26.346,15.103 C25.71,14.424 24.801,14 23.795,14 C21.866,14 20.301,15.565 20.301,17.495 C20.301,17.769 20.331,18.035 20.391,18.291 C17.486,18.145 14.911,16.755 13.186,14.638 C12.885,15.156 12.713,15.757 12.713,16.397 C12.713,17.609 13.33,18.679 14.268,19.306 C13.696,19.289 13.156,19.13 12.684,18.87 L12.684,18.913 C12.684,20.607 13.889,22.02 15.489,22.34 C15.196,22.422 14.887,22.463 14.568,22.463 C14.343,22.463 14.123,22.442 13.91,22.401 C14.355,23.789 15.645,24.8 17.175,24.827 C15.979,25.765 14.471,26.324 12.834,26.324 C12.552,26.324 12.273,26.308 12,26.276 C13.547,27.266 15.385,27.845 17.358,27.845 C23.788,27.845 27.303,22.52 27.303,17.901 C27.303,17.749 27.3,17.597 27.294,17.448 C27.977,16.955 28.57,16.34 29.037,15.639" id="Fill-169" fill="#FFFFFF" sketch:type="MSShapeGroup"></path>
        </g>
    </g>
</svg>